<?xml version="1.0" encoding="utf-8"?>
<!-- Generator: Adobe Illustrator 25.2.3, SVG Export Plug-In . SVG Version: 6.00 Build 0)  -->
<svg version="1.1" id="Capa_1" xmlns="http://www.w3.org/2000/svg" xmlns:xlink="http://www.w3.org/1999/xlink" x="0px" y="0px"
	 viewBox="0 0 200 40" style="enable-background:new 0 0 200 40;" xml:space="preserve">
<style type="text/css">
	.st0{fill:#E17050;}
	.st1{fill:#FFFFFF;}
</style>
<g>
	<path class="st0" d="M200,3.7v32.6c0,2-1.6,3.7-3.7,3.7H55.8V0h140.5C198.4,0,200,1.7,200,3.7z"/>
	<g>
		<path class="st1" d="M69.2,23.7c-0.4,0-0.7-0.1-0.9-0.3c-0.2-0.2-0.4-0.5-0.5-0.9c-0.1-0.4-0.1-1.1-0.1-2v-1.2
			c0-1.1,0.1-1.9,0.4-2.3c0.2-0.4,0.6-0.6,1.2-0.6c0.5,0,0.8,0.2,1.1,0.5c0.2,0.4,0.3,0.9,0.3,1.5h2.9c0-1.5-0.4-2.6-1.2-3.5
			c-0.8-0.8-1.8-1.2-3.1-1.2c-1.6,0-2.7,0.5-3.5,1.5c-0.8,1-1.2,2.4-1.2,4.3v0.9c0,1.9,0.4,3.3,1.2,4.2c0.8,1,2,1.4,3.5,1.4
			c1.2,0,2.3-0.4,3-1.2c0.8-0.8,1.2-1.9,1.2-3.2h-2.9C70.5,23.1,70.1,23.7,69.2,23.7z"/>
		<path class="st1" d="M83.3,15.5c-0.9-1-2-1.5-3.6-1.5c-1.5,0-2.7,0.5-3.5,1.5c-0.9,1-1.3,2.5-1.3,4.3v0.8c0,1.8,0.4,3.3,1.3,4.3
			c0.8,1,2,1.5,3.6,1.5c1.5,0,2.7-0.5,3.6-1.5c0.8-1,1.3-2.4,1.3-4.3v-0.8C84.6,17.9,84.1,16.5,83.3,15.5z M81.4,21
			c-0.1,1.8-0.6,2.7-1.7,2.7c-1.1,0-1.7-1.1-1.7-3.2v-0.8c0-1.1,0.2-1.9,0.4-2.4c0.3-0.5,0.7-0.8,1.2-0.8c0.5,0,1,0.3,1.3,0.8
			c0.3,0.5,0.5,1.3,0.5,2.4L81.4,21z"/>
		<path class="st1" d="M94,20.5c-0.5-0.6-1.4-1.1-2.7-1.6c-0.9-0.4-1.4-0.7-1.7-0.9c-0.2-0.2-0.4-0.4-0.4-0.7c0-0.4,0.1-0.7,0.3-0.9
			c0.2-0.2,0.5-0.3,0.8-0.3c0.8,0,1.2,0.5,1.2,1.5h3.1c0-1.1-0.4-2.1-1.2-2.7c-0.8-0.7-1.8-1-3.1-1c-1.2,0-2.2,0.3-3,1
			c-0.8,0.7-1.1,1.5-1.1,2.6c0,0.8,0.2,1.5,0.7,2.1c0.5,0.6,1.4,1.1,2.7,1.6c0.9,0.4,1.4,0.7,1.7,0.9c0.3,0.2,0.4,0.5,0.4,0.7
			c0,0.8-0.4,1.1-1.3,1.1c-0.5,0-0.9-0.1-1.2-0.4c-0.2-0.3-0.4-0.7-0.4-1.2h-3c0,0.7,0.2,1.4,0.6,2c0.4,0.6,0.9,1.1,1.6,1.4
			c0.7,0.3,1.4,0.5,2.3,0.5c1.3,0,2.4-0.3,3.2-1c0.8-0.6,1.2-1.5,1.2-2.6C94.8,21.8,94.5,21.1,94,20.5z"/>
		<path class="st1" d="M108,13.9c-1.3,0-2.2,0.5-2.9,1.6c-0.5-1.1-1.3-1.6-2.5-1.6c-1.1,0-2.1,0.4-2.8,1.3l-0.1-1.1h-2.9v12h3.1
			v-8.7c0.3-0.6,0.7-0.9,1.3-0.9c0.5,0,0.8,0.2,1,0.5c0.2,0.3,0.3,0.8,0.3,1.5v7.6h3.1V18l0-0.4c0.3-0.7,0.7-1.1,1.3-1.1
			c0.5,0,0.8,0.1,1,0.4c0.2,0.3,0.3,0.8,0.3,1.5v7.6h3.1v-7.8C111.1,15.4,110.1,13.9,108,13.9z"/>
		<path class="st1" d="M113.7,14.1v12h3.1v-12H113.7z M116.4,9.8c-0.3-0.3-0.7-0.5-1.2-0.5c-0.5,0-0.9,0.2-1.2,0.5
			c-0.3,0.3-0.5,0.7-0.5,1.2c0,0.5,0.2,0.9,0.5,1.2c0.3,0.3,0.7,0.5,1.2,0.5c0.5,0,0.9-0.2,1.2-0.5c0.3-0.3,0.5-0.7,0.5-1.2
			C116.9,10.6,116.7,10.2,116.4,9.8z"/>
		<path class="st1" d="M123.5,23.7c-0.4,0-0.7-0.1-0.9-0.3c-0.2-0.2-0.4-0.5-0.5-0.9c-0.1-0.4-0.1-1.1-0.1-2v-1.2
			c0-1.1,0.1-1.9,0.4-2.3c0.2-0.4,0.6-0.6,1.2-0.6c0.5,0,0.8,0.2,1.1,0.5c0.2,0.4,0.3,0.9,0.3,1.5h2.9c0-1.5-0.4-2.6-1.2-3.5
			c-0.8-0.8-1.8-1.2-3.1-1.2c-1.6,0-2.7,0.5-3.5,1.5c-0.8,1-1.2,2.4-1.2,4.3v0.9c0,1.9,0.4,3.3,1.2,4.2c0.8,1,2,1.4,3.5,1.4
			c1.2,0,2.3-0.4,3-1.2c0.8-0.8,1.2-1.9,1.2-3.2h-2.9C124.9,23.1,124.4,23.7,123.5,23.7z"/>
		<path class="st1" d="M135.8,24.4c-0.5,0.5-1.1,0.7-2,0.7c-1.1,0-1.8-0.3-2.3-1c-0.5-0.7-0.8-1.8-0.8-3.3v-1.4
			c0-1.5,0.2-2.6,0.7-3.3c0.5-0.7,1.3-1.1,2.3-1.1c0.8,0,1.5,0.3,2,0.8c0.5,0.5,0.7,1.3,0.8,2.3h1.2c0-1.3-0.4-2.4-1.1-3.1
			c-0.7-0.7-1.6-1.1-2.8-1.1c-1.4,0-2.5,0.5-3.2,1.4c-0.7,0.9-1.1,2.3-1.1,4.1v1.5c0,1.8,0.4,3.1,1.1,4c0.7,0.9,1.8,1.4,3.2,1.4
			c1.1,0,2-0.3,2.7-1c0.7-0.7,1.1-1.7,1.2-2.9h-1.2C136.5,23.3,136.3,24,135.8,24.4z"/>
		<path class="st1" d="M144.8,13.9c-0.7,0-1.3,0.2-1.9,0.6c-0.5,0.4-1,0.9-1.3,1.5V9.1h-1.2v17h1.2v-8.3c0.3-0.8,0.7-1.5,1.2-2
			c0.5-0.5,1.1-0.7,1.7-0.7c0.8,0,1.4,0.3,1.7,0.8c0.4,0.5,0.6,1.3,0.6,2.4v7.9h1.2v-8C147.9,15.3,146.8,13.9,144.8,13.9z"/>
		<path class="st1" d="M151.3,14.1v12h1.2v-12H151.3z M152.6,10c-0.1-0.2-0.3-0.3-0.6-0.3c-0.3,0-0.5,0.1-0.6,0.3
			c-0.1,0.2-0.2,0.4-0.2,0.6s0.1,0.5,0.2,0.6c0.1,0.2,0.3,0.3,0.6,0.3c0.3,0,0.5-0.1,0.6-0.3c0.1-0.2,0.2-0.4,0.2-0.6
			S152.7,10.2,152.6,10z"/>
		<path class="st1" d="M166.7,13.9c-0.7,0-1.3,0.2-1.9,0.6c-0.6,0.4-1.1,0.9-1.4,1.6c-0.5-1.5-1.4-2.2-3-2.2c-1.4,0-2.5,0.7-3.2,2
			l0-1.8h-1.2v12h1.2v-8.3c0.2-0.9,0.6-1.5,1.1-2c0.5-0.5,1.1-0.7,1.7-0.7c0.8,0,1.4,0.3,1.8,0.8c0.4,0.5,0.6,1.3,0.6,2.3v7.9h1.2
			v-8c0.1-0.9,0.4-1.6,0.9-2.2c0.5-0.6,1.2-0.9,1.9-0.9c0.8,0,1.4,0.3,1.8,0.8c0.4,0.5,0.6,1.3,0.6,2.3v7.9h1.2v-8
			C169.9,15.3,168.8,13.9,166.7,13.9z"/>
		<path class="st1" d="M180.3,15.3c-0.6-0.9-1.6-1.4-2.9-1.4c-1.4,0-2.4,0.6-3.1,1.9l-0.1-1.6h-1.1v16.5h1.2v-6
			c0.7,1.1,1.7,1.7,3.1,1.7c1.3,0,2.2-0.5,2.9-1.4c0.6-1,1-2.4,1-4.2v-1.2C181.3,17.6,181,16.2,180.3,15.3z M180.1,20.7
			c0,1.5-0.2,2.6-0.7,3.3s-1.2,1.1-2.2,1.1c-1.3,0-2.2-0.6-2.8-1.8v-6.3c0.6-1.3,1.5-2,2.8-2c1,0,1.7,0.4,2.2,1.1
			c0.5,0.7,0.7,1.8,0.7,3.4V20.7z"/>
		<path class="st1" d="M191,21.7c-0.2-0.4-0.5-0.7-0.9-1.1c-0.4-0.3-1.2-0.7-2.3-1.2c-1.1-0.5-1.8-0.9-2.1-1.2
			c-0.3-0.3-0.5-0.7-0.5-1.2c0-0.6,0.2-1.1,0.6-1.4c0.4-0.4,1-0.6,1.7-0.6c0.7,0,1.3,0.2,1.8,0.7c0.5,0.4,0.7,1,0.7,1.7h1.2
			c0-1.1-0.3-1.9-1-2.5c-0.7-0.6-1.6-1-2.7-1c-1,0-1.9,0.3-2.6,0.9c-0.7,0.6-1,1.4-1,2.3c0,0.5,0.1,0.9,0.3,1.3
			c0.2,0.4,0.5,0.7,0.9,1c0.4,0.3,1.1,0.7,2.1,1.1c1,0.5,1.7,0.9,2.2,1.3c0.4,0.4,0.6,0.8,0.6,1.4c0,0.6-0.2,1.1-0.7,1.5
			c-0.5,0.4-1.1,0.6-1.8,0.6c-0.9,0-1.5-0.2-2-0.6c-0.5-0.4-0.7-1-0.7-1.7h-1.2c0,1,0.4,1.9,1.1,2.5c0.7,0.6,1.7,1,2.9,1
			c1.1,0,2-0.3,2.7-0.9c0.7-0.6,1-1.4,1-2.4C191.3,22.6,191.2,22.1,191,21.7z"/>
	</g>
	<path class="st0" d="M3.7,0.7h52.1V0H3.7C1.7,0,0,1.7,0,3.7v32.6c0,2,1.7,3.7,3.7,3.7h52.1v-0.7H3.7c-1.6,0-3-1.3-3-3V3.7
		C0.7,2.1,2.1,0.7,3.7,0.7z"/>
	<g>
		<ellipse class="st0" cx="35" cy="11.3" rx="1.9" ry="1.9"/>
		<path class="st0" d="M20,9.4c-1,0-1.9,0.9-1.9,1.9s0.9,1.9,1.9,1.9c1,0,1.9-0.9,1.9-1.9S21.1,9.4,20,9.4z"/>
		<path class="st0" d="M11.4,5.3H12c0.4,0,0.7-0.3,0.7-0.7c0-0.4-0.3-0.7-0.7-0.7h-0.6c-1.2,0-2.1,1-2.1,2.1v11.2
			c0,1.2,0.9,2.1,2.1,2.1H12c0.4,0,0.7-0.3,0.7-0.7c0-0.4-0.3-0.7-0.7-0.7h-0.6c-0.4,0-0.7-0.3-0.7-0.7V5.9
			C10.7,5.6,11,5.3,11.4,5.3z"/>
		<path class="st0" d="M44.1,3.8h-0.6c-0.4,0-0.7,0.3-0.7,0.7c0,0.4,0.3,0.7,0.7,0.7h0.6c0.4,0,0.7,0.3,0.7,0.7v11.2
			c0,0.4-0.3,0.7-0.7,0.7h-0.6c-0.4,0-0.7,0.3-0.7,0.7c0,0.4,0.3,0.7,0.7,0.7h0.6c1.2,0,2.1-1,2.1-2.1V5.9
			C46.2,4.8,45.2,3.8,44.1,3.8z"/>
	</g>
</g>
</svg>
